# xmcd CD database file
#
# Track frame offsets:
#	150
#	26564
#	44303
#	74849
#	91042
#	119072
#	148243
#	182548
#	206092
#	227651
#	252717
#	266623
#	302985
#
# Disc length: 4291 seconds
#
# Revision: 0
# Processed by: cddbd v1.5.2PL0 Copyright (c) Steve Scherf et al.
# Submitted via: CDex 1.51
#
DISCID=c910c10d
DTITLE=Lazy Lester - One More Once
DYEAR=2010
DGENRE=Blues
TTITLE0=Sugar Coated Love
TTITLE1=I'm A Lover Not A Fighter
TTITLE2=They Call Me Lazy
TTITLE3=I Hear You Knockin'
TTITLE4=Five Long Years
TTITLE5=The Sun Is Shining
TTITLE6=Port Allen Jail
TTITLE7=Cambaya Stomp
TTITLE8=Irene
TTITLE9=Been Walking Ba Myself
TTITLE10=Dream Club
TTITLE11=That's Alright
TTITLE12=Jail House Wall
EXTD=YEAR: 2010
EXTT0=
EXTT1=
EXTT2=
EXTT3=
EXTT4=
EXTT5=
EXTT6=
EXTT7=
EXTT8=
EXTT9=
EXTT10=
EXTT11=
EXTT12=
PLAYORDER=
